<?xml version="1.0" encoding="utf-8"?>
<!-- Generator: Adobe Illustrator 19.2.1, SVG Export Plug-In . SVG Version: 6.00 Build 0)  -->
<!DOCTYPE svg PUBLIC "-//W3C//DTD SVG 1.1//EN" "http://www.w3.org/Graphics/SVG/1.1/DTD/svg11.dtd">
<svg version="1.1" id="Layer_1" xmlns="http://www.w3.org/2000/svg" xmlns:xlink="http://www.w3.org/1999/xlink" x="0px" y="0px"
	 width="100px" height="100px" viewBox="0 0 100 100" style="enable-background:new 0 0 100 100;" xml:space="preserve">
<path style="fill:#FFFFFF;" d="M50,99.5l-1.3-1.8C47.4,95.9,16,53.1,16,34.7C16,15.8,31.2,0.5,50,0.5c18.8,0,34,15.4,34,34.2
	c0,18.3-31.4,61.2-32.7,63L50,99.5z M50,3.7c-17,0-30.8,13.9-30.8,31C19.2,50,44,85.6,50,94c6-8.4,30.8-44,30.8-59.3
	C80.8,17.6,67,3.7,50,3.7z"/>
</svg>
